<svg xmlns="http://www.w3.org/2000/svg" xmlns:xlink="http://www.w3.org/1999/xlink" fill="none" version="1.1" width="171.0497283935547" height="46" viewBox="0 0 171.0497283935547 46"><defs><clipPath id="master_svg0_124_25780"><rect x="0" y="0" width="171.0497283935547" height="46" rx="12"/></clipPath><clipPath id="master_svg1_125_01126"><rect x="17" y="13" width="20" height="20" rx="0"/></clipPath></defs><g clip-path="url(#master_svg0_124_25780)"><rect x="0" y="0" width="171.0497283935547" height="46" rx="12" fill="#D9E8FF" fill-opacity="1"/><g><path d="M50.826464196777344,14.30469L53.09456419677734,14.30469L53.09456419677734,32.701899999999995L50.826464196777344,32.701899999999995L50.826464196777344,14.30469ZM48.23176419677734,21.50969L51.42826419677734,21.50969L51.42826419677734,23.4294L48.23176419677734,23.4294L48.23176419677734,21.50969ZM46.699564196777345,14.65094L48.92076419677734,14.65094L48.92076419677734,31.8156L46.699564196777345,31.8156L46.699564196777345,14.65094ZM38.155174196777345,16.39688L40.530484196777344,16.39688L40.530484196777344,27.0191L38.155174196777345,27.0191L38.155174196777345,16.39688ZM38.155174196777345,26.1097L39.402984196777346,26.1097Q40.76236419677734,26.1097,42.312364196777345,26.009700000000002Q43.86236419677734,25.9097,45.60173419677734,25.57L45.82892419677734,27.610300000000002Q44.016114196777345,27.9503,42.415804196777344,28.0503Q40.81580419677734,28.15,39.402984196777346,28.15L38.155174196777345,28.15L38.155174196777345,26.1097ZM67.83266419677734,14.30469L70.20796419677734,14.30469L70.20796419677734,24.645899999999997L67.83266419677734,24.645899999999997L67.83266419677734,14.30469ZM69.55896419677734,18.5425L72.72606419677734,18.5425L72.72606419677734,20.47594L69.55896419677734,20.47594L69.55896419677734,18.5425ZM56.52206419677734,21.98938L58.02326419677735,21.98938Q59.997964196777346,21.98938,61.41826419677734,21.94625Q62.83856419677734,21.902810000000002,63.98456419677734,21.776249999999997Q65.13076419677733,21.64969,66.25676419677734,21.416249999999998L66.49736419677734,23.302799999999998Q65.33826419677735,23.5494,64.15516419677735,23.6828Q62.97236419677735,23.8159,61.50826419677735,23.8594Q60.044564196777344,23.9025,58.02326419677735,23.9025L56.52206419677734,23.9025L56.52206419677734,21.98938ZM56.52206419677734,15.4775L64.67106419677734,15.4775L64.67106419677734,17.37094L58.89076419677734,17.37094L58.89076419677734,23.0866L56.52206419677734,23.0866L56.52206419677734,15.4775ZM58.36206419677734,25.4981L70.20796419677734,25.4981L70.20796419677734,32.495599999999996L58.36206419677734,32.495599999999996L58.36206419677734,25.4981ZM67.88606419677734,27.3778L60.69736419677734,27.3778L60.69736419677734,30.6091L67.88606419677734,30.6091L67.88606419677734,27.3778ZM78.42736419677735,17.14094L80.31396419677733,17.14094L80.31396419677733,19.46031Q80.31396419677733,20.975,79.96456419677735,22.46969Q79.61516419677734,23.964100000000002,78.95236419677735,25.2819Q78.28956419677735,26.5997,77.33576419677735,27.6241Q76.38206419677735,28.6481,75.16676419677734,29.2353L73.81576419677734,27.3553Q74.91046419677734,26.8281,75.76366419677734,25.964399999999998Q76.61706419677733,25.1006,77.21296419677734,24.0238Q77.80896419677734,22.94688,78.11796419677734,21.77688Q78.42736419677735,20.60688,78.42736419677735,19.46031L78.42736419677735,17.14094ZM78.91616419677734,17.14094L80.79606419677734,17.14094L80.79606419677734,19.46031Q80.79606419677734,20.520310000000002,81.09516419677735,21.61375Q81.39456419677734,22.706870000000002,81.97046419677734,23.7272Q82.54676419677735,24.7472,83.39676419677734,25.5644Q84.24676419677735,26.3813,85.33456419677734,26.895L84.01676419677734,28.775Q82.79516419677734,28.2013,81.85146419677734,27.2203Q80.90766419677735,26.2394,80.25146419677733,24.985Q79.59516419677735,23.730600000000003,79.25546419677735,22.31625Q78.91616419677734,20.90156,78.91616419677734,19.46031L78.91616419677734,17.14094ZM74.50956419677735,16.10406L84.55986419677734,16.10406L84.55986419677734,18.07094L74.50956419677735,18.07094L74.50956419677735,16.10406ZM86.13986419677735,14.31812L88.52856419677735,14.31812L88.52856419677735,32.7153L86.13986419677735,32.7153L86.13986419677735,14.31812ZM88.00016419677735,21.44281L91.28606419677735,21.44281L91.28606419677735,23.4097L88.00016419677735,23.4097L88.00016419677735,21.44281ZM97.80546419677734,22.816879999999998L114.44206419677734,22.816879999999998L114.44206419677734,24.7569L97.80546419677734,24.7569L97.80546419677734,22.816879999999998ZM99.83826419677735,19.5275L112.53546419677734,19.5275L112.53546419677734,21.41406L99.83826419677735,21.41406L99.83826419677735,19.5275ZM99.83826419677735,14.86969L112.42926419677734,14.86969L112.42926419677734,16.78281L102.19356419677734,16.78281L102.19356419677734,20.45094L99.83826419677735,20.45094L99.83826419677735,14.86969ZM106.06676419677734,25.973100000000002Q109.04116419677734,25.973100000000002,110.73486419677734,26.8534Q112.42896419677734,27.733800000000002,112.42896419677734,29.3409Q112.42896419677734,30.9481,110.73486419677734,31.825Q109.04116419677734,32.702200000000005,106.06676419677734,32.702200000000005Q103.09926419677734,32.702200000000005,101.40206419677735,31.8256Q99.70486419677735,30.9491,99.70486419677735,29.3475Q99.70486419677735,27.733800000000002,101.40206419677735,26.8534Q103.09926419677734,25.973100000000002,106.06676419677734,25.973100000000002ZM106.06206419677734,27.785899999999998Q104.78146419677735,27.785899999999998,103.89646419677734,27.9619Q103.01146419677734,28.1378,102.55896419677734,28.48Q102.10676419677735,28.822200000000002,102.10676419677735,29.3409Q102.10676419677735,29.8597,102.55896419677734,30.2053Q103.01146419677734,30.5509,103.89646419677734,30.7203Q104.78146419677735,30.8894,106.06206419677734,30.8894Q107.35856419677734,30.8894,108.24016419677734,30.7203Q109.12206419677734,30.5509,109.57426419677735,30.2053Q110.02676419677735,29.8597,110.02676419677735,29.3409Q110.02676419677735,28.822200000000002,109.57426419677735,28.48Q109.12206419677734,28.1378,108.24016419677734,27.9619Q107.35856419677734,27.785899999999998,106.06206419677734,27.785899999999998ZM116.18546419677735,24.2447L132.84856419677735,24.2447L132.84856419677735,26.144399999999997L116.18546419677735,26.144399999999997L116.18546419677735,24.2447ZM118.24516419677734,14.69063L130.78926419677734,14.69063L130.78926419677734,19.53594L120.62016419677734,19.53594L120.62016419677734,21.65906L118.27826419677734,21.65906L118.27826419677734,17.84375L128.44736419677736,17.84375L128.44736419677736,16.509999999999998L118.24516419677734,16.509999999999998L118.24516419677734,14.69063ZM118.27826419677734,20.936880000000002L131.15546419677736,20.936880000000002L131.15546419677736,22.75625L118.27826419677734,22.75625L118.27826419677734,20.936880000000002ZM123.32926419677734,21.83938L125.69796419677735,21.83938L125.69796419677735,25.2553L123.32926419677734,25.2553L123.32926419677734,21.83938ZM118.02546419677735,27.2747L130.90266419677732,27.2747L130.90266419677732,32.6228L128.52736419677734,32.6228L128.52736419677734,29.1747L118.02546419677735,29.1747L118.02546419677735,27.2747Z" fill="#3578FF" fill-opacity="1"/></g><g clip-path="url(#master_svg1_125_01126)"><g><path d="M32.833366507720946,23.833336507720947L27.833336507720947,23.833336507720947L27.833336507720947,28.833366507720946L26.166666507720947,28.833366507720946L26.166666507720947,23.833336507720947L21.166666507720947,23.833336507720947L21.166666507720947,22.166666507720947L26.166666507720947,22.166666507720947L26.166666507720947,17.166666507720947L27.833336507720947,17.166666507720947L27.833336507720947,22.166666507720947L32.833366507720946,22.166666507720947L32.833366507720946,23.833336507720947Z" fill="#3578FF" fill-opacity="1" style="mix-blend-mode:passthrough"/></g></g></g></svg>