<svg xmlns="http://www.w3.org/2000/svg" xmlns:xlink="http://www.w3.org/1999/xlink" fill="none" version="1.1" width="383" height="94" viewBox="0 0 383 94"><defs><filter id="master_svg0_123_7043" filterUnits="objectBoundingBox" color-interpolation-filters="sRGB" x="-0.05830903790087463" y="-0.2962962962962963" width="1.1166180758017492" height="1.7407407407407407"><feFlood flood-opacity="0" result="BackgroundImageFix"/><feColorMatrix in="SourceAlpha" type="matrix" values="0 0 0 0 0 0 0 0 0 0 0 0 0 0 0 0 0 0 127 0"/><feOffset dy="4" dx="0"/><feGaussianBlur stdDeviation="5"/><feColorMatrix type="matrix" values="0 0 0 0 0 0 0 0 0 0 0 0 0 0 0 0 0 0 0.15000000596046448 0"/><feBlend mode="normal" in2="BackgroundImageFix" result="effect1_dropShadow"/><feBlend mode="normal" in="SourceGraphic" in2="effect1_dropShadow" result="shape"/></filter><clipPath id="master_svg1_123_7043"><rect x="20" y="16" width="343" height="54" rx="8"/></clipPath><clipPath id="master_svg2_123_7044"><rect x="36" y="28" width="30" height="30" rx="8"/></clipPath><clipPath id="master_svg3_123_7045"><rect x="44" y="36" width="14" height="14" rx="0"/></clipPath></defs><g filter="url(#master_svg0_123_7043)"><g clip-path="url(#master_svg1_123_7043)"><rect x="20" y="16" width="343" height="54" rx="8" fill="#FFFFFF" fill-opacity="1"/><g clip-path="url(#master_svg2_123_7044)"><rect x="36" y="28" width="30" height="30" rx="8" fill="#3578FF" fill-opacity="1"/><g clip-path="url(#master_svg3_123_7045)"><g><path d="M56.794100443077085,48.070933707427976C56.903500443077085,48.19803370742798,56.95820044307709,48.33883370742798,56.95820044307709,48.49473370742798C56.95820044307709,48.667033707427976,56.89670044307709,48.81603370742798,56.773600443077086,48.93903370742798C56.65740044307709,49.05933370742798,56.49610044307709,49.126333707427975,56.32930044307709,49.12363370742798C56.25680044307709,49.12363370742798,56.18570044307709,49.111333707427974,56.11740044307709,49.08943370742798C56.04900044307709,49.06753370742798,55.98750044307709,49.033433707427974,55.932800443077085,48.98823370742798L55.86450044307709,48.93363370742798L52.48613044307709,45.52929370742798C51.672660443077085,46.10351370742798,50.766210443077085,46.38925370742798,49.76270044307709,46.38925370742798C49.66289044307709,46.38925370742798,49.560350443077084,46.385153707427975,49.45645044307709,46.37558370742798C49.35254044307709,46.367383707427976,49.250000443077084,46.35371370742798,49.14746044307709,46.33457370742798C48.452930443077086,46.255273707427975,47.78711044307709,46.01191370742798,47.204690443077084,45.62363370742798C46.56621044307709,45.21347370742798,46.05488044307709,44.67207370742798,45.67343844307709,43.99804370742798C45.48886844307709,43.68359370742798,45.34394644307709,43.34863370742798,45.24277444307709,43.00136370742798C45.13750104307709,42.65000370742798,45.074610443077084,42.28769370742798,45.051368233077085,41.921283707427975C45.029493243077084,41.554883707427976,45.05000102307709,41.18847370742798,45.112891643077084,40.82753370742798C45.20449344307709,40.245113707427976,45.40820444307709,39.68457370742798,45.71445444307709,39.18144370742798C46.017969443077085,38.67421370742798,46.41856044307709,38.23125370742798,46.89023044307709,37.87578070742798C47.29082044307709,37.55722570742798,47.74063044307709,37.311131707427975,48.236910443077086,37.13749970742798C48.72637044307709,36.96523370742798,49.24316044307709,36.87773370742798,49.76270044307709,36.87773370742798C49.98145044307709,36.87773370742798,50.19199044307709,36.89140560742798,50.39297044307709,36.91874930742798C50.931640443077086,36.99121070742798,51.44707044307709,37.155272707427976,51.93789044307709,37.40956970742798C52.421880443077086,37.65839770742798,52.85664044307709,37.99062370742798,53.22441044307709,38.39394370742798C53.65234044307709,38.841013707427976,53.97774044307709,39.36875370742798,54.20332044307709,39.97988370742798C54.42617044307708,40.591013707427976,54.52461044307709,41.21035370742798,54.497270443077085,41.83925370742798C54.46035044307709,42.886523707427976,54.100780443077085,43.831253707427976,53.41582044307709,44.66933370742798L56.80920044307709,48.072233707427976L56.794100443077085,48.072233707427976L56.794100443077085,48.070933707427976ZM53.78496044307709,41.824223707427976C53.81504044307709,41.26367370742798,53.72207044307709,40.70449370742798,53.51152044307709,40.18359370742798C53.39258044307709,39.86367370742798,53.23125044307709,39.56015370742798,53.03164044307709,39.28261370742798C52.830660443077086,39.00097370742798,52.59687044307709,38.74668370742798,52.32754044307708,38.52382370742798C52.063670443077086,38.30234370742798,51.771090443077085,38.11640370742798,51.458010443077086,37.97011370742798C50.79219044307709,37.66113270742798,50.05390044307709,37.54355470742798,49.32519044307709,37.629687707427976C49.28418044307709,37.629687707427976,49.24316044307709,37.63378870742798,49.20215044307709,37.643359707427976L49.120120443077084,37.65703070742798C48.53769044307709,37.74726570742798,47.98262044307709,37.97011370742798,47.49863044307709,38.30644370742798C47.011910443077085,38.637303707427975,46.607230443077086,39.07343370742798,46.31601044307709,39.58476370742798C45.97968744307709,40.14121370742798,45.79374944307709,40.76054370742798,45.76093744307709,41.444143707427976C45.728124443077085,42.12773370742798,45.85390544307709,42.76211370742798,46.136910443077085,43.34453370742798C46.37344044307709,43.872263707427976,46.72754044307709,44.33847370742798,47.16914044307709,44.71035370742798C47.60664044307709,45.08632370742798,48.12344044307709,45.362503707427976,48.67988044307709,45.51699370742798C49.26367044307709,45.68105370742798,49.85156044307709,45.713863707427976,50.44492044307709,45.61269370742798C50.75664044307709,45.55800370742798,51.058790443077086,45.46640370742798,51.34726044307709,45.33925370742798C51.63437044307709,45.21347370742798,51.90781044307709,45.05625370742798,52.16211044307709,44.86757370742798C52.41504044307709,44.68027370742798,52.643360443077086,44.46425370742798,52.84707044307709,44.22500370742798C53.05215044307709,43.983003707427976,53.223050443077085,43.72187370742798,53.36113044307709,43.43886370742798C53.61543044307709,42.937113707427976,53.75899044307709,42.38613370742798,53.78496044307709,41.824223707427976Z" fill="#FFFFFF" fill-opacity="1"/></g></g></g></g></g></svg>
